<svg width="512" height="512" viewBox="0 0 512 512" fill="none" xmlns="http://www.w3.org/2000/svg">
  <!-- 1. 文件夹后盖 -->
  <!-- 颜色：深蓝色 #1d74b3 -->
  <path d="M64 128C64 105.9 81.9 88 104 88H232L264 120H408C430.1 120 448 137.9 448 160V384H64V128Z" fill="#1d74b3"/>

  <!-- 2. 文件夹前盖 -->
  <!-- 颜色：主色调 #268bd2 -->
  <path d="M64 192C64 165.5 85.5 144 112 144H400C426.5 144 448 165.5 448 192V392C448 418.5 426.5 440 400 440H112C85.5 440 64 418.5 64 392V192Z" fill="#268bd2"/>

  <!-- 3. 传输箭头 (File Drop / Transfer) -->
  <!-- 纯白色，圆角设计，看起来友好且现代 -->
  <g filter="drop-shadow(0px 4px 8px rgba(0,0,0,0.15))">
    <!-- 箭身：稍微加宽，显得稳重 -->
    <path d="M140 260 H300 V210 C300 200 312 195 319 202 L419 282 C426 288 426 298 419 304 L319 384 C312 391 300 386 300 376 V326 H140 C128.9 326 120 317.1 120 306 V280 C120 268.9 128.9 260 140 260Z" fill="white"/>
  </g>
</svg>